<svg width="800" height="600" xmlns="http://www.w3.org/2000/svg">

    <g>
        <title>Layer 1</title>
        <ellipse stroke-width="10" ry="37" rx="37" id="svg_12" cy="255.90903" cx="461.81796"
            stroke="#000" fill="#9755D9" />
        <ellipse stroke-width="10" ry="48" rx="48" id="svg_13" cy="267.90903" cx="518.81796"
            stroke="#000" fill="#9755D9" />
        <ellipse stroke-width="10" ry="67.5" rx="67.5" id="svg_15" cy="299.40903" cx="588.31796"
            stroke="#000" fill="#9755D9" />
        <text
            transform="rotate(-0.47873, 273.524, 241.709) matrix(5.50593, 0, 0, 5.48172, -1742.56, -1291.83)"
            xml:space="preserve" text-anchor="start" font-family="Noto Sans JP" font-size="24"
            stroke-width="0" id="svg_17" y="287.86338" x="348.76221" stroke="#884D58" fill="#000000">lrnr</text>
        <g stroke-width="10" id="svg_18">
            <path
                d="m121.59752,397.90904c0,-1.33333 0,-2.66667 0,-4c0,-1.33333 0,-4 0,-5.33333c0,-1.33333 0,-2.66667 0,-4c0,-1.33333 0,-2.66667 0,-4c0,-1.33333 0,-2.66667 0,-4c0,-1.33333 0,-2.66667 0,-4c0,-1.33333 0,-2.66667 0,-4c0,-1.33333 0,-2.66667 0,-4c0,-1.33333 0,-2.66667 0,-4c0,-1.33333 0,-2.66667 0,-4c0,-1.33333 0,-2.66667 0,-4c0,-1.33333 0,-2.66667 0,-4c0,-1.33333 4.27923,-1.72388 14.61023,-2.66667c10.33101,-0.94279 0,-2.66667 0,-4c0,-1.33333 0,-2.66667 0,-4c0,-1.33333 0,-2.66667 0,-4c0,-1.33333 -10.33101,-3.05721 0,-4c10.33101,-0.94279 14.61023,-1.33333 14.61023,-2.66667c0,-1.33333 0,-2.66667 0,-4c0,-1.33333 0,-2.66667 0,-4c0,-1.33333 0,-2.66667 0,-4c0,-1.33333 0,-2.66667 0,-4c0,-1.33333 0,-2.66667 0,-4c0,-1.33333 0,-2.66667 0,-4c0,-1.33333 0,-2.66667 0,-4c0,-1.33333 0,-2.66667 0,-4c0,-1.33333 0,-2.66667 0,-4c0,-1.33333 0,-2.66667 0,-4c0,-1.33333 0,-2.66667 0,-4c0,-1.33333 0,-2.66667 0,-4c0,-1.33333 0,-2.66667 0,-4c0,-1.33333 0,-2.66667 0,-4c0,-1.33333 0,-2.66667 0,-4c0,-1.33333 0,-2.66667 0,-4c0,-1.33333 0,-2.66667 0,-4c0,-1.33333 0,-2.66667 0,-4c0,-1.33333 0,-2.66667 0,-4c0,-1.33333 0,-2.66667 0,-5.33333c0,-1.33333 0,-2.66667 0,-4c0,-1.33333 0,-2.66667 0,-4c0,-2.66667 0,-4 0,-5.33333c0,-1.33333 0,-4 0,-5.33333c0,-1.33333 0,-4 0,-5.33333c0,-2.66667 0,-5.33333 0,-8c0,-2.66667 -14.61023,-4 -14.61023,-5.33333c0,-1.33333 0,-5.33333 0,-6.66667c0,-4 -7.10425,-6.43166 -14.61023,-9.33333c-6.71345,-2.59534 0,-5.33333 0,-6.66667c0,-1.33333 0,-2.66667 0,-4c0,-2.66667 0,-4 0,-5.33333c0,-1.33333 0,-2.66667 0,-4c0,-2.66667 0,-4 0,-5.33333c0,-2.66667 0,-4 0,-6.66667c0,-4 0,-5.33333 0,-10.66667c0,-2.66667 0,-5.33333 0,-8c0,-1.33333 0,-5.33333 0,-6.66667c0,-1.33333 0,-2.66667 0,-4c0,-1.33333 0,-2.66667 0,-4c0,-1.33333 0,-2.66667 0,-4c0,-1.33333 0,-2.66667 0,-4c0,-1.33333 0,-2.66667 0,-4l0,-1.33333"
                id="svg_1" stroke="#000" fill="#9755D9" />
            <line id="svg_10" y2="221.90903" x2="446.81796" y1="114.90903" x1="120.81796"
                stroke="#000" fill="#9755D9" />
            <line id="svg_11" y2="291.90903" x2="448.81796" y1="395.90903" x1="121.81796"
                stroke="#000" fill="#9755D9" />
        </g>
        <text xml:space="preserve" text-anchor="start" font-family="Noto Sans JP" font-size="24"
            id="svg_19" y="308.18301" x="582.72928" stroke-width="5" stroke="#000" fill="#000000">2</text>
    </g>
</svg>